Coordinates
version=1
nRows=4
nColumns=124
inDegrees=yes

Units are S.I. units (second, meters, Newtons, ...)
If the header above contains a line with 'inDegrees', this indicates whether rotational values are in degrees (yes) or radians (no).

endheader 
time	pelvis_tilt	pelvis_list	pelvis_rotation	pelvis_tx	pelvis_ty	pelvis_tz	hip_flexion_l	hip_adduction_l	hip_rotation_l	hip_flexion_r	hip_adduction_r	hip_rotation_r	knee_angle_l	knee_angle_r	ankle_angle_l	ankle_angle_r	subtalar_angle_l	subtalar_angle_r	mtp_angle_l	mtp_angle_r	lumbar_extension	lumbar_bending	lumbar_rotation	arm_flex_l	arm_add_l	arm_rot_l	arm_flex_r	arm_add_r	arm_rot_r	elbow_flex_l	elbow_flex_r	glut_med1_l/activation	glut_med2_l/activation	glut_med3_l/activation	glut_min1_l/activation	glut_min2_l/activation	glut_min3_l/activation	semimem_l/activation	semiten_l/activation	bifemlh_l/activation	bifemsh_l/activation	sar_l/activation	add_long_l/activation	add_brev_l/activation	add_mag1_l/activation	add_mag2_l/activation	add_mag3_l/activation	tfl_l/activation	pect_l/activation	grac_l/activation	glut_max1_l/activation	glut_max2_l/activation	glut_max3_l/activation	iliacus_l/activation	psoas_l/activation	quad_fem_l/activation	gem_l/activation	peri_l/activation	rect_fem_l/activation	vas_med_l/activation	vas_int_l/activation	vas_lat_l/activation	med_gas_l/activation	lat_gas_l/activation	soleus_l/activation	tib_post_l/activation	flex_dig_l/activation	flex_hal_l/activation	tib_ant_l/activation	per_brev_l/activation	per_long_l/activation	per_tert_l/activation	ext_dig_l/activation	ext_hal_l/activation	ercspn_l/activation	intobl_l/activation	extobl_l/activation	glut_med1_r/activation	glut_med2_r/activation	glut_med3_r/activation	glut_min1_r/activation	glut_min2_r/activation	glut_min3_r/activation	semimem_r/activation	semiten_r/activation	bifemlh_r/activation	bifemsh_r/activation	sar_r/activation	add_long_r/activation	add_brev_r/activation	add_mag1_r/activation	add_mag2_r/activation	add_mag3_r/activation	tfl_r/activation	pect_r/activation	grac_r/activation	glut_max1_r/activation	glut_max2_r/activation	glut_max3_r/activation	iliacus_r/activation	psoas_r/activation	quad_fem_r/activation	gem_r/activation	peri_r/activation	rect_fem_r/activation	vas_med_r/activation	vas_int_r/activation	vas_lat_r/activation	med_gas_r/activation	lat_gas_r/activation	soleus_r/activation	tib_post_r/activation	flex_dig_r/activation	flex_hal_r/activation	tib_ant_r/activation	per_brev_r/activation	per_long_r/activation	per_tert_r/activation	ext_dig_r/activation	ext_hal_r/activation	ercspn_r/activation	intobl_r/activation	extobl_r/activation	
          0.19635933	         -3.44490947	          0.52321616	         -9.64167827	          0.15792481	          0.99810871	          0.00490596	         21.01272599	          0.11757074	         10.38989767	         -2.27794884	          2.55067422	         16.89012073	        -12.20789546	        -41.05056822	         -0.51936977	        -38.79927847	        -17.91031862	         -8.44554202	          1.30787628	         49.43954931	         -4.44187853	        -11.07060682	         10.92296502	        -10.11771927	        -22.90560707	          1.94198037	         -1.77660986	        -13.73498357	          4.69593990	         27.64790683	         89.02593220	          0.68044896	          0.84607770	          0.77821475	          0.58388094	          0.63501728	          0.64105960	          0.86783838	          0.72603238	          0.84485556	          0.37839204	          0.51027249	          0.05001581	          0.17316021	          0.54154520	          0.55947294	          0.61277206	          0.53743869	          0.47819910	          0.40504407	          0.69738547	          0.78022763	          0.69978106	          0.05356154	          0.06133663	          0.74609477	          0.74191108	          0.83125088	          0.47484448	          0.59593549	          0.61355021	          0.35744401	          0.26764462	          0.42760571	          0.48670121	          0.59819529	          0.57998780	          0.55253208	          0.66105751	          0.52889259	          0.36733591	          0.62554090	          0.70639264	          0.65778560	          0.10106762	          0.12637494	          0.05002021	          0.57104082	          0.46545498	          0.49092346	          0.64743100	          0.60567354	          0.57406878	          0.55911629	          0.32663114	          0.41860539	          0.50664699	          0.60093985	          0.87924678	          0.68451462	          0.58903876	          0.57991133	          0.56518079	          0.65059182	          0.64206242	          0.56240101	          0.56593972	          0.52672630	          0.52725901	          0.85029567	          0.83506668	          0.26525009	          0.46127751	          0.35671289	          0.68876798	          0.50402425	          0.51709585	          0.45914519	          0.57296596	          0.60473052	          0.66333127	          0.89859592	          0.68652831	          0.62460402	          0.48611715	          0.34153927	          0.28174150	          0.32197772	          0.11358300	          0.43349559	          0.26161690	          0.06823648	          0.05003061	
          0.20421371	         -3.64192862	          0.50060202	         -9.51516280	          0.16433325	          0.99949727	          0.00537967	         20.55159984	          0.08098733	         10.36649910	         -2.50064553	          2.60872087	         17.12577246	        -11.66936574	        -40.61203501	         -0.61790794	        -39.39003170	        -18.35796215	         -7.95167742	          1.30554396	         47.82062507	         -4.12064357	        -11.34576321	         11.13921017	        -10.19106737	        -23.17795130	          1.96303875	         -2.34582009	        -13.62907024	          4.67971280	         28.10590423	         88.39116592	          0.69302439	          0.85496661	          0.78077055	          0.58822914	          0.63979147	          0.64180471	          0.87441693	          0.73075863	          0.84977852	          0.37460382	          0.50886244	          0.05001821	          0.15313161	          0.53758708	          0.55734183	          0.61258995	          0.54247041	          0.47008643	          0.39470358	          0.69951289	          0.78399105	          0.70113984	          0.05008998	          0.05656748	          0.73923011	          0.74133229	          0.83247563	          0.46941931	          0.59073556	          0.60797199	          0.35743422	          0.28975374	          0.44557982	          0.48832974	          0.60778879	          0.58361448	          0.55608497	          0.65636286	          0.53167685	          0.37401432	          0.62597091	          0.70457960	          0.65394482	          0.09150545	          0.12689479	          0.05001633	          0.56598546	          0.46476990	          0.49352172	          0.64626612	          0.60528394	          0.57450857	          0.55887719	          0.32268396	          0.41714617	          0.51528635	          0.60508781	          0.88236105	          0.68355337	          0.58867532	          0.57945243	          0.56391364	          0.65689114	          0.64295513	          0.56618622	          0.56589090	          0.52687701	          0.52740838	          0.85884561	          0.84440662	          0.28201794	          0.46641283	          0.36587801	          0.69328073	          0.49766928	          0.51004611	          0.45034792	          0.57355279	          0.60532673	          0.65440054	          0.90029638	          0.68745073	          0.62812291	          0.48761142	          0.32004997	          0.26503252	          0.29652108	          0.10044082	          0.43017769	          0.26253835	          0.07365293	          0.05002104	
          0.21206808	         -3.82802014	          0.44012327	         -9.37301152	          0.17078385	          1.00091151	          0.00584480	         20.06061159	          0.00488870	         10.33872066	         -2.71486648	          2.68741832	         17.30779330	        -11.10648859	        -40.17896785	         -0.72797920	        -39.99162703	        -18.76329330	         -7.35281255	          1.31303565	         46.11363657	         -3.80923792	        -11.58291258	         11.34127188	        -10.28741804	        -23.46043015	          1.99857679	         -2.95225375	        -13.55094446	          4.66001679	         28.66138168	         87.78130612	          0.70435521	          0.86371954	          0.78340505	          0.59232250	          0.64442447	          0.64250507	          0.87962509	          0.73534103	          0.85401367	          0.36945150	          0.50716377	          0.05002471	          0.13542046	          0.53354743	          0.55524101	          0.61223673	          0.54815392	          0.46109834	          0.38394063	          0.70176000	          0.78818842	          0.70305291	          0.05005324	          0.05002701	          0.73397890	          0.73707326	          0.83244739	          0.46430747	          0.58748419	          0.60419388	          0.35785359	          0.31485238	          0.46369514	          0.49026843	          0.61761796	          0.58769947	          0.56009918	          0.65168054	          0.53380693	          0.38028775	          0.62618967	          0.70198221	          0.64998254	          0.08603715	          0.11243291	          0.05001203	          0.56261781	          0.46480323	          0.49604697	          0.64588626	          0.60554256	          0.57516496	          0.55875523	          0.31866409	          0.41520200	          0.52243043	          0.60880127	          0.88306327	          0.68222817	          0.58830756	          0.57905330	          0.56277399	          0.66335406	          0.64359510	          0.56881253	          0.56584025	          0.52706753	          0.52757056	          0.86654098	          0.85312981	          0.29516411	          0.47038301	          0.37649679	          0.69754925	          0.49211601	          0.50385505	          0.44587184	          0.57414060	          0.60590422	          0.64455016	          0.90050320	          0.68762275	          0.63117088	          0.48941401	          0.29870560	          0.24842116	          0.27205476	          0.08882004	          0.42874629	          0.26209547	          0.07752652	          0.05741882	
          0.21992245	         -4.00252217	          0.34211987	         -9.21625555	          0.17727205	          1.00234373	          0.00629680	         19.54226810	         -0.10970948	         10.30717205	         -2.92102362	          2.78511904	         17.43648938	        -10.52423716	        -39.74910803	         -0.84707921	        -40.60451559	        -19.12809155	         -6.64697106	          1.33217077	         44.32422253	         -3.50919837	        -11.78138825	         11.52868774	        -10.40681342	        -23.75144553	          2.04631127	         -3.59353087	        -13.49868174	          4.63529708	         29.31392032	         87.19370890	          0.71289693	          0.87188208	          0.78555573	          0.59650763	          0.64910537	          0.64314409	          0.88333956	          0.73812913	          0.85629537	          0.36486729	          0.50569005	          0.05002631	          0.11975417	          0.52928383	          0.55297581	          0.61116949	          0.55502848	          0.45164104	          0.37283304	          0.70349744	          0.79161890	          0.70433056	          0.05005578	          0.05004266	          0.72826840	          0.73301049	          0.83102980	          0.46026132	          0.58303540	          0.59919030	          0.35837283	          0.34168997	          0.48357745	          0.49247884	          0.62758008	          0.59227822	          0.56457146	          0.64707366	          0.53529045	          0.38613968	          0.62620442	          0.69846793	          0.64593210	          0.08479112	          0.09949722	          0.05000785	          0.56037496	          0.46567157	          0.49876286	          0.64578119	          0.60611936	          0.57601952	          0.55864399	          0.31315279	          0.41218846	          0.52897281	          0.61216561	          0.88331707	          0.68107521	          0.58790675	          0.57868743	          0.56155460	          0.67012293	          0.64407139	          0.57099227	          0.56575329	          0.52724142	          0.52757968	          0.87418116	          0.86234470	          0.30648956	          0.47376198	          0.38956470	          0.70265571	          0.48691184	          0.49801961	          0.44100406	          0.57460536	          0.60640495	          0.63341355	          0.89928657	          0.68703650	          0.63368215	          0.49170466	          0.27731712	          0.23164662	          0.24869962	          0.07854511	          0.42996722	          0.26283079	          0.08375251	          0.07369172	
